<svg xmlns="http://www.w3.org/2000/svg" width="540" height="1170" viewBox="0 0 540 1170" fill="none">
  <defs>
    <linearGradient id="bg" x1="0" y1="0" x2="0" y2="1">
      <stop offset="0%" stop-color="#090F22"/>
      <stop offset="100%" stop-color="#050A17"/>
    </linearGradient>
  </defs>
  <rect width="540" height="1170" fill="url(#bg)"/>
  <rect x="24" y="80" width="170" height="46" fill="#FF4747"/>
  <text x="36" y="109" fill="#000" font-family="Arial, sans-serif" font-size="26" font-weight="700" letter-spacing="6">HIKARI</text>
  <rect x="20" y="170" width="500" height="170" rx="26" fill="#121A30" stroke="#3A4568"/>
  <text x="40" y="235" fill="#F5F7FF" font-family="Arial, sans-serif" font-size="36" font-weight="700">Featured Detail</text>
  <text x="40" y="275" fill="#A1ABC4" font-family="Arial, sans-serif" font-size="24">Trailer • Rating • Watch Now</text>
  <rect x="20" y="380" width="500" height="155" rx="20" fill="#10172A" stroke="#2D3753"/>
  <rect x="36" y="396" width="150" height="123" rx="12" fill="#1A2742"/>
  <rect x="20" y="555" width="500" height="155" rx="20" fill="#10172A" stroke="#2D3753"/>
  <rect x="36" y="571" width="150" height="123" rx="12" fill="#1E2E4F"/>
  <rect x="20" y="730" width="500" height="155" rx="20" fill="#10172A" stroke="#2D3753"/>
  <rect x="36" y="746" width="150" height="123" rx="12" fill="#22365C"/>
  <rect x="20" y="905" width="500" height="155" rx="20" fill="#10172A" stroke="#2D3753"/>
  <rect x="36" y="921" width="150" height="123" rx="12" fill="#26406A"/>
  <text x="20" y="1140" fill="#6F7FA8" font-family="Arial, sans-serif" font-size="20">Hikari Anime Myanmar • Preview Screen</text>
</svg>
